<?xml version="1.0" encoding="UTF-8" standalone="no"?>
<svg width="20px" height="21px" viewBox="0 0 20 21" version="1.1" xmlns="http://www.w3.org/2000/svg" xmlns:xlink="http://www.w3.org/1999/xlink" xmlns:sketch="http://www.bohemiancoding.com/sketch/ns">
    <!-- Generator: Sketch 3.0.3 (7891) - http://www.bohemiancoding.com/sketch -->
    <title>Imported Layers</title>
    <desc>Created with Sketch.</desc>
    <defs></defs>
    <g id="Page-1" stroke="none" stroke-width="1" fill="none" fill-rule="evenodd" sketch:type="MSPage">
        <g id="Artboard-1" sketch:type="MSArtboardGroup" transform="translate(-142.000000, -164.000000)" fill="#DDDDDD">
            <g id="Header" sketch:type="MSLayerGroup">
                <g id="Search-Input" transform="translate(122.000000, 149.000000)" sketch:type="MSShapeGroup">
                    <path d="M39.5619444,33.3810411 L33.6247222,27.2320685 C34.4855556,25.9686164 34.9930556,24.4278493 34.9930556,22.7633836 C34.9930556,18.4756438 31.6369444,15 27.4966667,15 C23.3566667,15 20,18.4756438 20,22.7633836 C20,27.0508356 23.3566667,30.5270548 27.4966667,30.5270548 C29.1116667,30.5270548 30.6061111,29.996589 31.8297222,29.0970411 L37.7638889,35.243137 C38.3083333,35.8066849 39.1583333,35.8492603 39.6527778,35.3369178 C40.1472222,34.8251507 40.1063889,33.9448767 39.5619444,33.3810411 L39.5619444,33.3810411 Z M22.5,22.7633836 C22.5,19.9105479 24.7416667,17.5890411 27.4966667,17.5890411 C30.2516667,17.5890411 32.4930556,19.9105479 32.4930556,22.7633836 C32.4930556,25.6167945 30.2516667,27.9380137 27.4966667,27.9380137 C24.7416667,27.9380137 22.5,25.6167945 22.5,22.7633836 L22.5,22.7633836 Z" id="Imported-Layers"></path>
                </g>
            </g>
        </g>
    </g>
</svg>